<?xml version="1.0" encoding="UTF-8"?>
<svg xmlns="http://www.w3.org/2000/svg" width="282" height="173" viewBox="0 0 282 173" fill="none">
  <g clip-path="url(#clip0_1861_24356)">
    <rect width="282" height="172" transform="translate(0 0.199951)" fill="white"></rect>
    <path d="M191.5 86.2115C191.5 58.352 168.845 35.7 141.001 35.7C113.158 35.7 90.5 58.352 90.5 86.2115C90.5 112.531 110.729 134.21 136.451 136.516H136.575C136.998 136.553 137.421 136.585 137.844 136.611L138.089 136.625C138.472 136.648 138.863 136.665 139.257 136.677H139.565C140.043 136.677 140.521 136.7 141.004 136.7C141.488 136.7 141.917 136.7 142.371 136.68H142.564C142.964 136.668 143.364 136.651 143.761 136.631H143.842C144.737 136.582 145.629 136.507 146.513 136.409C171.772 133.669 191.5 112.203 191.5 86.2115ZM146.34 131.602L145.854 117.632L158.05 110.147C162.237 113.02 167.962 111.949 170.834 107.761C171.933 106.155 172.497 104.24 172.44 102.294C172.244 97.4497 168.362 93.5664 163.518 93.3706C158.473 93.1893 154.237 97.133 154.056 102.179C154.033 102.795 154.073 103.414 154.176 104.022L145.569 109.347L144.944 91.7442L156.948 84.4008C161.737 87.979 168.517 86.9945 172.091 82.2044C175.666 77.4143 174.684 70.6323 169.896 67.057C165.107 63.4788 158.326 64.4633 154.752 69.2534C152.812 71.8528 152.139 75.1834 152.919 78.3297L144.656 83.4595L144.167 69.4117C148.098 67.8918 150.625 64.0344 150.45 59.823C150.222 54.3938 145.641 50.1766 140.213 50.4012C134.785 50.6257 130.569 55.2114 130.794 60.6405C130.958 64.5555 133.427 67.9983 137.079 69.4088L136.187 98.5148L127.193 92.7834C127.792 90.3308 127.507 87.7458 126.385 85.4832C124.586 81.7409 120.96 79.0868 116.824 78.8278C110.542 78.419 105.117 83.1803 104.705 89.4643C104.297 95.7484 109.057 101.175 115.339 101.586C118.26 101.776 121.144 100.835 123.392 98.9581L135.928 106.892L135.174 131.547C112.726 128.683 95.2917 109.445 95.2917 86.2115C95.309 61.0118 115.805 40.5044 141.001 40.5044C166.197 40.5044 186.694 61.0061 186.694 86.2086C186.694 109.606 169.026 128.948 146.34 131.602Z" fill="#3D424B"></path>
    <path d="M140.628 54.2788C137.333 54.2788 134.662 56.9502 134.662 60.2462C134.662 63.5423 137.333 66.2137 140.628 66.2137C143.923 66.2137 146.594 63.5423 146.594 60.2462C146.591 56.9531 143.92 54.2817 140.628 54.2788Z" fill="#009BDE"></path>
    <path d="M163.119 97.28C160.128 97.2858 157.705 99.7154 157.711 102.706C157.717 105.697 160.146 108.121 163.136 108.115C166.126 108.109 168.549 105.68 168.543 102.689V102.683C168.532 99.6952 166.106 97.2772 163.119 97.28Z" fill="#009BDE"></path>
    <path d="M166.457 81.5625C169.622 80.0195 170.937 76.2053 169.398 73.0388C167.858 69.8723 164.042 68.5568 160.876 70.0968C157.711 71.6398 156.395 75.454 157.935 78.6205C159.48 81.7841 163.291 83.0996 166.457 81.5625Z" fill="#009BDE"></path>
    <path d="M116.114 83.3357C112.318 83.3357 109.241 86.4158 109.244 90.2128C109.247 94.0097 112.323 97.087 116.119 97.0841C119.913 97.0841 122.986 94.0068 122.989 90.2128C122.986 86.4158 119.91 83.3386 116.114 83.3357Z" fill="#009BDE"></path>
  </g>
  <defs>
    <clipPath id="clip0_1861_24356">
      <rect width="282" height="172" fill="white" transform="translate(0 0.199951)"></rect>
    </clipPath>
  </defs>
</svg>
