<svg viewBox="0 0 181 66" fill="none" xmlns="http://www.w3.org/2000/svg">
<path d="M16.122 31.6282C11.5667 31.6282 8.12991 33.0415 5.8136 36.3069V14.9156C5.8136 14.6725 5.61727 14.4768 5.37334 14.4768H1.27815C1.03422 14.4768 0.837891 14.6725 0.837891 14.9156V64.4622C0.837891 64.7053 1.03422 64.901 1.27815 64.901H5.36937C5.61132 64.901 5.80963 64.7053 5.80963 64.4622V60.6888C7.01142 62.3215 8.49481 63.5312 10.2618 64.3179C12.0308 65.1046 13.9822 65.498 16.12 65.498C20.3956 65.498 23.7372 64.0096 26.1448 61.0327C28.5523 58.0559 29.7561 53.8793 29.7561 48.5028C29.7561 43.1263 28.5622 38.9694 26.1745 36.0321C23.7868 33.0948 20.4353 31.6262 16.12 31.6262L16.122 31.6282ZM22.71 57.3779C21.2365 59.4475 18.9956 60.4832 15.9891 60.4832C12.6475 60.4832 10.2201 59.5601 8.707 57.712C7.19386 55.8658 6.4363 52.798 6.4363 48.5087C6.4363 44.2194 7.17403 41.1714 8.64751 39.3608C10.121 37.5502 12.5285 36.6449 15.8701 36.6449C18.9559 36.6449 21.2345 37.6194 22.71 39.5683C24.1835 41.5173 24.9212 44.4783 24.9212 48.4514C24.9212 52.4244 24.1835 55.3064 22.71 57.3759V57.3779Z" fill="#323E48"/>
<path d="M105.54 31.5689C99.5863 31.5689 95.9968 34.3283 94.9913 36.2081V32.6046C94.9913 32.3615 94.795 32.1658 94.5511 32.1658H90.4559C90.212 32.1658 90.0156 32.3615 90.0156 32.6046V64.4642C90.0156 64.7073 90.212 64.903 90.4559 64.903H94.5511C94.795 64.903 94.9913 64.7073 94.9913 64.4642V48.1668C94.9913 43.9051 95.7905 40.8492 97.389 38.9971C98.9874 37.145 101.504 35.7811 104.941 35.7811C107.537 35.7811 109.446 36.4374 110.664 37.7518C111.882 39.0663 112.493 41.0587 112.493 43.7252V64.4642C112.493 64.7073 112.689 64.903 112.933 64.903H117.028C117.272 64.903 117.468 64.7073 117.468 64.4642V43.5454C117.468 39.3648 116.469 36.3227 114.472 34.4192C112.475 32.5177 109.498 31.5669 105.542 31.5669L105.54 31.5689Z" fill="#323E48"/>
<path d="M146.9 33.0909C146.042 32.7074 144.929 32.3694 143.561 32.0749C141.982 31.7369 140.404 31.5669 138.825 31.5669C133.931 31.5669 130.159 33.0612 127.513 36.0479C124.866 39.0347 123.543 43.2667 123.543 48.742C123.543 54.2173 124.846 58.2061 127.454 61.1237C130.062 64.0412 133.742 65.5 138.496 65.5C141.709 65.5 144.394 64.9742 146.551 63.9206C146.702 63.8475 146.795 63.6913 146.795 63.5233V60.0503C146.795 59.742 146.484 59.5325 146.194 59.6432C143.527 60.6611 140.921 61.1691 138.375 61.1691C135.178 61.1691 132.767 60.0938 131.138 57.9432C129.51 55.7927 128.695 52.7071 128.695 48.6827C128.695 40.1989 132.031 35.959 138.704 35.959C139.704 35.959 140.852 36.1033 142.151 36.3919C143.287 36.6449 144.348 36.9552 145.332 37.3229C145.562 37.4079 145.816 37.2952 145.899 37.0639L147.14 33.6443C147.22 33.4249 147.113 33.1858 146.9 33.0909Z" fill="#323E48"/>
<path d="M80.8455 33.3498C78.9576 31.6182 76.0543 30.7505 72.1395 30.7505C70.202 30.7505 68.2684 30.9995 66.3408 31.4977C64.552 31.9602 62.8961 32.5848 61.373 33.3715C61.1728 33.4763 61.0855 33.7174 61.1708 33.927L62.3765 36.9196C62.4717 37.1548 62.7454 37.2576 62.9734 37.1489C66.2595 35.6111 69.2144 34.8421 71.8401 34.8421C74.2774 34.8421 76.0503 35.4549 77.1589 36.6784C77.9144 37.5126 78.5729 39.2402 78.6462 40.78L74.0493 40.8156C72.1019 40.8314 69.7955 40.9678 67.4554 41.8731C65.2402 42.729 63.3522 43.9742 61.845 45.5753C59.3879 48.1865 58.1782 51.7385 58.5253 55.3241C58.8584 58.7457 60.5481 61.2719 63.2868 63.2367C65.3175 64.6934 67.8302 65.496 70.3607 65.496C71.7151 65.496 73.0359 65.2706 74.2873 64.8279C76.0642 64.1973 77.5694 63.2307 78.8207 62.0487V64.4602C78.8207 64.7033 79.0171 64.899 79.261 64.899H83.2372C83.4811 64.899 83.6775 64.7033 83.6775 64.4602V41.8988C83.6775 38.0759 82.7335 35.0793 80.8455 33.3458V33.3498ZM78.9219 50.5802C78.906 54.8339 76.7821 59.5028 72.5084 61.0208C70.2377 61.8273 67.5922 61.4122 65.6428 60.0127C61.9025 57.3285 61.8193 51.8334 64.8654 48.5996C65.9739 47.4235 67.378 46.5538 68.8812 45.9726C70.5272 45.3362 72.2466 45.2195 74.0017 45.2057L78.9417 45.2176C78.9417 45.2452 78.9219 50.5822 78.9219 50.5822V50.5802Z" fill="#323E48"/>
<path d="M54.4358 32.1679C53.5216 32.0433 52.4924 31.9307 50.888 31.9307C45.0457 32.1402 40.9267 35.8859 40.9405 36.2654C40.9405 35.0696 40.9346 34.0556 40.9326 32.9071C40.9326 32.666 40.7363 32.4663 40.4924 32.4663H36.4051C36.1612 32.4663 35.9648 32.662 35.9648 32.9052V64.7647C35.9648 65.0078 36.1612 65.2035 36.4051 65.2035H40.5003C40.7442 65.2035 40.9405 65.0078 40.9405 64.7647V47.6391C40.9405 44.4329 41.8845 41.7546 43.7725 39.604C45.6604 37.4534 47.9331 36.3781 50.5905 36.3781C51.5107 36.3781 52.5578 36.4947 53.7279 36.73C53.9758 36.7794 54.2177 36.6153 54.2554 36.3663L54.8107 32.664C54.8463 32.4229 54.6798 32.1975 54.4358 32.1639V32.1679Z" fill="#323E48"/>
<path d="M177.84 34.4212C175.843 32.5197 172.867 31.5689 168.91 31.5689C162.957 31.5689 159.367 34.3283 158.362 36.2081L158.138 29.8413L163.481 26.5759C164.129 27.0206 164.912 27.2816 165.757 27.2816C167.98 27.2816 169.787 25.4789 169.787 23.265C169.787 21.0512 167.978 19.2485 165.757 19.2485C163.536 19.2485 161.727 21.0512 161.727 23.265C161.727 23.4825 161.749 23.694 161.783 23.9015L158.013 26.226L157.745 18.5468L163.003 15.3407C164.381 16.3705 166.275 16.6176 167.927 15.815C170.277 14.6745 171.258 11.838 170.112 9.49374C168.966 7.14944 166.122 6.171 163.772 7.3135C161.729 8.30577 160.724 10.575 161.246 12.69L157.62 14.9256L157.406 8.794C159.016 8.17136 160.163 6.61574 160.163 4.79327C160.163 2.42525 158.229 0.5 155.855 0.5C153.482 0.5 151.548 2.42525 151.548 4.79327C151.548 6.61376 152.694 8.17136 154.305 8.794L153.914 21.4979L149.975 18.9955C150.061 18.6337 150.108 18.2582 150.108 17.8708C150.108 15.1272 147.867 12.8955 145.115 12.8955C142.362 12.8955 140.121 15.1272 140.121 17.8708C140.121 20.6143 142.362 22.846 145.115 22.846C146.328 22.846 147.443 22.4111 148.309 21.6896L153.801 25.1527L153.515 34.4509L153.363 39.3945V64.4642C153.363 64.7074 153.559 64.9031 153.803 64.9031H157.926C158.17 64.9031 158.366 64.7074 158.366 64.4642V48.1668C158.366 43.9052 159.165 40.8493 160.764 38.9971C162.239 37.2854 164.504 35.9946 167.548 35.8068C167.77 35.797 167.988 35.7851 168.218 35.7831C168.246 35.7831 168.272 35.7831 168.298 35.7831C170.888 35.7851 172.793 36.4413 174.009 37.7538C175.227 39.0683 175.837 41.0608 175.837 43.7273V59.918H175.834V64.4662C175.834 64.7093 176.03 64.905 176.274 64.905H180.397C180.641 64.905 180.837 64.7093 180.837 64.4662V59.918L180.841 43.5474C180.841 39.3668 179.841 36.3247 177.844 34.4212H177.84Z" fill="#323E48"/>
<path class="logo-dot" d="M155.852 2.18994C154.41 2.18994 153.238 3.35814 153.238 4.79516C153.238 6.23218 154.41 7.3984 155.852 7.3984C157.294 7.3984 158.466 6.2302 158.466 4.79516C158.466 3.36012 157.294 2.18994 155.852 2.18994Z" fill="#009ADE"/>
<path class="logo-dot" d="M165.702 20.9563C164.393 20.9563 163.33 22.0178 163.33 23.3204C163.33 24.623 164.395 25.6844 165.702 25.6844C167.009 25.6844 168.074 24.623 168.074 23.3204C168.074 22.0178 167.009 20.9563 165.702 20.9563Z" fill="#009ADE"/>
<path class="logo-dot" d="M167.163 14.0973C168.547 13.4252 169.124 11.757 168.45 10.3773C167.775 8.99756 166.102 8.42236 164.717 9.09442C163.333 9.76648 162.756 11.4348 163.43 12.8145C164.105 14.1942 165.778 14.7694 167.163 14.0973Z" fill="#009ADE"/>
<path class="logo-dot" d="M145.112 14.8701C143.452 14.8701 142.1 16.2162 142.1 17.8707C142.1 19.5251 143.45 20.8712 145.112 20.8712C146.774 20.8712 148.122 19.5251 148.122 17.8707C148.122 16.2162 146.772 14.8701 145.112 14.8701Z" fill="#009ADE"/>
</svg>
